<svg
    version="1.0"
    xmlns="http://www.w3.org/2000/svg"
    viewBox="0 0 1024.000000 1024.000000"
    preserveAspectRatio="xMidYMid meet"
>
    <g
        transform="translate(-230,1250.000000) scale(0.150000,-0.150000)"
        fill="#006FEE"
        stroke="none"
    >
        <path d="M2965 7361 c-210 -26 -390 -181 -481 -417 l-27 -69 2 -1570 c2 -863
        7 -1604 11 -1645 14 -121 51 -211 124 -304 66 -82 299 -209 414 -225 31 -5
        935 -8 2007 -7 1850 1 1953 2 2015 19 143 40 299 142 330 217 7 16 18 30 24
        30 6 0 33 46 60 102 56 117 58 126 250 1133 8 44 26 134 40 200 14 66 46 228
        71 360 25 132 64 332 87 445 49 247 48 296 -7 407 -26 53 -53 88 -103 133
        l-67 62 0 211 c0 239 -4 258 -83 374 -45 67 -88 104 -172 151 -126 70 -11 65
        -1473 62 l-1317 -2 -45 22 c-25 12 -95 69 -156 126 -110 104 -146 129 -249
        168 -53 20 -72 21 -625 22 -313 1 -597 -2 -630 -5z m1215 -263 c30 -16 100
        -67 155 -115 118 -103 182 -147 259 -173 54 -19 91 -20 1373 -20 1253 0 1320
        -1 1358 -19 46 -20 95 -73 125 -132 19 -35 50 -222 50 -294 l0 -22 -1912 -7
        c-1172 -4 -1932 -10 -1963 -16 -92 -18 -212 -86 -290 -164 -124 -124 -153
        -204 -220 -620 -13 -83 -49 -277 -79 -431 -31 -154 -60 -311 -66 -350 -6 -38
        -19 -113 -30 -165 -32 -156 -98 -506 -120 -635 -27 -159 -69 -348 -80 -358
        -13 -14 -28 114 -34 283 -3 85 -6 794 -7 1575 l-1 1420 22 59 c36 96 122 175
        220 202 34 10 183 13 615 11 l570 -2 55 -27z m3255 -1022 c64 -6 136 -38 187
        -84 77 -70 83 -113 42 -307 -47 -224 -93 -460 -123 -630 -34 -192 -55 -298
        -111 -570 -22 -104 -44 -219 -50 -255 -18 -107 -129 -611 -146 -663 -18 -55
        -101 -144 -168 -180 l-41 -22 -2027 -3 -2028 -2 0 47 c0 27 9 93 20 148 23
        119 65 332 84 430 8 39 22 117 31 175 9 58 26 143 36 189 11 46 26 136 34 200
        9 64 28 170 44 236 16 66 37 169 46 229 9 60 25 136 36 170 10 33 26 106 34
        161 9 55 25 156 36 225 11 69 26 163 34 210 17 105 34 146 77 185 72 67 175
        104 308 114 107 7 3567 5 3645 -3z"/>
        <path d="M5185 5778 c-47 -25 -45 17 -45 -1087 0 -575 3 -1063 6 -1084 9 -49
        29 -59 120 -61 62 -1 77 2 94 20 l22 21 -1 909 c-1 500 -4 993 -7 1096 -7 178
        -8 187 -28 192 -36 10 -140 6 -161 -6z"/>
        <path d="M3664 5348 c-61 -54 -51 -133 25 -187 26 -19 48 -20 484 -22 l456 -1
        32 22 c36 26 59 74 59 124 0 26 -7 40 -31 60 -17 14 -36 26 -42 26 -7 0 -223
        2 -481 4 l-468 4 -34 -30z"/>
        <path d="M5849 5358 c-38 -23 -62 -72 -54 -108 3 -16 24 -49 46 -74 l41 -46
        560 0 561 0 43 44 c38 37 44 49 44 84 0 32 -7 47 -31 71 -17 17 -40 33 -52 36
        -12 2 -271 6 -576 7 -507 3 -556 2 -582 -14z"/>
        <path d="M3661 4802 c-54 -8 -101 -62 -101 -115 0 -32 38 -87 75 -109 28 -16
        71 -17 508 -18 l478 -2 34 27 c43 32 65 73 65 118 0 27 -8 42 -35 66 -20 17
        -43 31 -53 31 -9 0 -226 1 -482 3 -256 1 -476 0 -489 -1z"/>
        <path d="M5819 4761 c-24 -24 -39 -48 -39 -63 0 -30 51 -113 79 -127 13 -8
        193 -11 552 -11 l531 0 39 39 c33 33 39 45 39 81 0 37 -6 48 -40 82 l-41 38
        -541 0 -540 0 -39 -39z"/>
        <path d="M3630 4208 c-26 -13 -53 -37 -64 -56 -16 -29 -17 -39 -7 -72 6 -21
        25 -50 42 -64 l31 -26 496 0 497 0 37 30 c72 59 72 132 1 180 l-37 25 -475 3
        -476 2 -45 -22z"/>
        <path d="M5852 4210 c-40 -24 -72 -68 -72 -97 0 -31 22 -72 55 -103 l27 -25
        488 -3 c542 -3 541 -3 580 60 32 53 27 95 -19 138 l-39 37 -218 7 c-121 4
        -344 6 -496 5 -244 -2 -281 -4 -306 -19z"/>
    </g>
</svg>